<svg width="936" height="160" viewBox="0 0 936 160" fill="none" xmlns="http://www.w3.org/2000/svg">
<path d="M84.5352 40.6L112.535 119H97.0792L91.1432 102.088H61.7992L55.8632 119H40.4072L68.4072 40.6H84.5352ZM76.3592 60.312L66.5032 88.648H86.3272L76.5832 60.312H76.3592ZM128.196 119V40.6H143.876V105.56H170.644V119H128.196ZM210.929 54.04V119H195.249V54.04H174.081V40.6H232.097V54.04H210.929ZM294.297 40.6H309.977V112.056L296.985 119.56H261.929L248.937 112.056V40.6H264.617V105H294.297V40.6ZM361.48 91.56V78.12H390.04V112.056L377.048 119.56H345.352L332.36 112.056V47.544L345.352 40.04H377.048L390.04 47.544V63.56H374.36V53.48H348.04V106.12H374.36V91.56H361.48ZM474.018 91.56V78.12H502.578V112.056L489.586 119.56H457.89L444.898 112.056V47.544L457.89 40.04H489.586L502.578 47.544V63.56H486.898V53.48H460.578V106.12H486.898V91.56H474.018ZM570.342 40.6H586.022V112.056L573.03 119.56H537.974L524.982 112.056V40.6H540.662V105H570.342V40.6ZM668.997 119H651.749L634.949 89.432H625.205V119H609.525V40.6H651.973L664.965 48.104V81.928L651.973 89.432L668.997 119ZM625.205 54.04V75.992H649.285V54.04H625.205ZM716.489 91.56V78.12H745.049V112.056L732.057 119.56H700.361L687.369 112.056V47.544L700.361 40.04H732.057L745.049 47.544V63.56H729.369V53.48H703.049V106.12H729.369V91.56H716.489ZM812.813 40.6H828.493V112.056L815.501 119.56H780.445L767.453 112.056V40.6H783.133V105H812.813V40.6ZM851.996 119V40.6H867.676V105.56H894.444V119H851.996Z" fill="#FCFEFF"/>
</svg>
