<svg width="441" height="160" viewBox="0 0 441 160" fill="none" xmlns="http://www.w3.org/2000/svg">
<path d="M40.5908 54.04V119H24.9108V54.04H3.74281V40.6H61.7588V54.04H40.5908ZM109.309 40.6L137.309 119H121.853L115.917 102.088H86.5729L80.6369 119H65.1809L93.1809 40.6H109.309ZM101.133 60.312L91.2769 88.648H111.101L101.357 60.312H101.133ZM152.97 119V40.6H168.65V105.56H195.418V119H152.97ZM273.287 111.496L260.295 119H212.247V40.6H260.295L273.287 48.104V111.496ZM227.927 54.04V105.56H257.607V54.04H227.927ZM296.789 119V40.6H312.469V119H296.789ZM363.941 91.56V78.12H392.501V112.056L379.509 119.56H347.813L334.821 112.056V47.544L347.813 40.04H379.509L392.501 47.544V63.56H376.821V53.48H350.501V106.12H376.821V91.56H363.941ZM414.905 119V40.6H430.585V119H414.905Z" fill="#0070BB"/>
</svg>
